{"title":"iZombie S02E08 The Hurt Stalker 1080p HDTV X264-DIMENSION[rartv]","uid":12889309,"size":2347849923,"categoryP":"video","categoryS":"hd___tv_shows","magnet":"?xt=urn:btih:b9e8e18aa88ccbde33499c831953b75286e1cddf&amp;dn=iZombie+S02E08+The+Hurt+Stalker+1080p+HDTV+X264-DIMENSION%5Brartv%5D&amp;tr=udp%3A%2F%2Ftracker.leechers-paradise.org%3A6969&amp;tr=udp%3A%2F%2Fzer0day.ch%3A1337&amp;tr=udp%3A%2F%2Fopen.demonii.com%3A1337&amp;tr=udp%3A%2F%2Ftracker.coppersurfer.tk%3A6969&amp;tr=udp%3A%2F%2Fexodus.desync.com%3A6969","seeders":0,"leechers":1,"uploader":"cheerfulcaca","files":3,"time":1449090931,"description":"SEASON 2, EPISODE 8 &quot;THE HURT STALKER&quot; SYNOPSIS:\r\n\r\nA wedding planner turns up dead and it turns out that she used to date Clive. The murder weapon is Clive's stolen 9mm Beretta, and Liv and Ravi set out to clear their friend's name. Problems arrive when it turns out that the planner was an obsessive stalker... and Liv has to eat her brain to solve the case.\r\n\r\n\r\nSERIES INFO:\r\n\r\n8/10·IMDb\r\n8.7/10·TV.com\r\n92%·Rotten Tomatoes\r\n\r\nWhen over-achieving medical resident Liv Moore attends a party that turns into a zombie feeding frenzy, she ends up joining the ranks of the living dead. Determined to pass as human despite her pale appearance and newly listless demeanor, Liv forms a plan to resist her drive to consume fresh human brains by taking a job at a coroner's office, where she can secretly snack on the brains of corpses delivered there. Soon discovering that she absorbs the memories of those she feeds on, she finds new purpose by posing as a psychic and working with a detective to help solve their murders.\r\n\r\n\r\nMEDIA INFO:\r\n\r\nGeneral:\r\n\r\nUnique ID                                : 219591816326086161275603151924486272082 (0xA533D8701913E4E09C5E1EBE25A4F452)\r\nComplete name                            : iZombie.S02E08.1080p.HDTV.X264-DIMENSION.mkv\r\nFormat                                   : Matroska\r\nFormat version                           : Version 4 / Version 2\r\nFile size                                : 2.19 GiB\r\nDuration                                 : 42mn 27s\r\nOverall bit rate                         : 7 373 Kbps\r\nEncoded date                             : UTC 2015-12-02 20:05:06\r\nWriting application                      : mkvmerge v8.5.2 ('Crosses') 64bit\r\nWriting library                          : libebml v1.3.3 + libmatroska v1.4.4\r\n\r\nVideo:\r\n\r\nID                                       : 1\r\nFormat                                   : AVC\r\nFormat/Info                              : Advanced Video Codec\r\nFormat profile                           :   \r\nFormat settings, CABAC                   : Yes\r\nFormat settings, ReFrames                : 4 frames\r\nCodec ID                                 : V_MPEG4/ISO/AVC\r\nDuration                                 : 42mn 27s\r\nBit rate                                 : 6 987 Kbps\r\nWidth                                    : 1 920 pixels\r\nHeight                                   : 1 068 pixels\r\nDisplay aspect ratio                     : 16:9\r\nFrame rate mode                          : Constant\r\nFrame rate                               : 23.976 (24000/1001) fps\r\nColor space                              : YUV\r\nChroma subsampling                       : 4:2:0\r\nBit depth                                : 8 bits\r\nScan type                                : Progressive\r\nBits/(Pixel*Frame)                       : 0.142\r\nStream size                              : 2.07 GiB (95%)\r\nWriting library                          : x264 core 148 r2638 7599210\r\nEncoding settings                        : cabac=1 / ref=4 / deblock=1:-3:-3 / analyse=0x3:0x133 / me=umh / subme=11 / psy=1 / psy_rd=1.00:0.00 / mixed_ref=1 / me_range=32 / chroma_me=1 / trellis=2 / 8x8dct=1 / cqm=0 / deadzone=21,11 / fast_pskip=0 / chroma_qp_offset=-2 / threads=20 / lookahead_threads=2 / sliced_threads=0 / nr=0 / decimate=1 / interlaced=0 / bluray_compat=0 / constrained_intra=0 / bframes=5 / b_pyramid=2 / b_adapt=2 / b_bias=0 / direct=3 / weightb=1 / open_gop=0 / weightp=2 / keyint=250 / keyint_min=23 / scenecut=40 / intra_refresh=0 / rc_lookahead=60 / rc=crf / mbtree=1 / crf=17.0 / qcomp=0.60 / qpmin=0 / qpmax=69 / qpstep=4 / ip_ratio=1.40 / aq=1:1.00\r\nLanguage                                 : English\r\nDefault                                  : Yes\r\nForced                                   : No\r\nColor range                              : Limited\r\nMatrix coefficients                      : BT.709\r\n\r\nAudio:\r\n\r\nID                                       : 2\r\nFormat                                   : AC-3\r\nFormat/Info                              : Audio Coding 3\r\nMode extension                           : CM (complete main)\r\nFormat settings, Endianness              : Big\r\nCodec ID                                 : A_AC3\r\nDuration                                 : 42mn 27s\r\nBit rate mode                            : Constant\r\nBit rate                                 : 384 Kbps\r\nChannel(s)                               : 6 channels\r\nChannel positions                        : Front: L C R, Side: L R, LFE\r\nSampling rate                            : 48.0 KHz\r\nFrame rate                               : 31.250 fps (1536 spf)\r\nCompression mode                         : Lossy\r\nStream size                              : 117 MiB (5%)\r\nDefault                                  : Yes\r\nForced                                   : No\r\n\r\nText:\r\n\r\nID                                       : 3\r\nFormat                                   : UTF-8\r\nCodec ID                                 : S_TEXT/UTF8\r\nCodec ID/Info                            : UTF-8 Plain Text\r\nDuration                                 : 40mn 29s\r\nBit rate                                 : 86 bps\r\nCount of elements                        : 782\r\nStream size                              : 25.5 KiB (0%)\r\nDefault                                  : Yes\r\nForced                                   : No\r\n \nhttps://rarbg.to","torrent":{"xt":"urn:btih:b9e8e18aa88ccbde33499c831953b75286e1cddf","amp;dn":"iZombie+S02E08+The+Hurt+Stalker+1080p+HDTV+X264-DIMENSION%5Brartv%5D","amp;tr":["udp%3A%2F%2Ftracker.leechers-paradise.org%3A6969","udp%3A%2F%2Fzer0day.ch%3A1337","udp%3A%2F%2Fopen.demonii.com%3A1337","udp%3A%2F%2Ftracker.coppersurfer.tk%3A6969","udp%3A%2F%2Fexodus.desync.com%3A6969"],"infoHash":"b9e8e18aa88ccbde33499c831953b75286e1cddf","infoHashBuffer":{"type":"Buffer","data":[185,232,225,138,168,140,203,222,51,73,156,131,25,83,183,82,134,225,205,223]},"announce":[],"urlList":[]}}